<svg width="16" height="14" viewBox="0 0 16 14" fill="none" xmlns="http://www.w3.org/2000/svg">
<path fill-rule="evenodd" clip-rule="evenodd" d="M10.1096 8.67729C14.6682 5.69236 15.2049 3.06752 15.4058 0.97598C15.4594 0.415362 14.9703 -0.0475071 14.4006 0.0178983C12.9722 0.181771 10.4351 0.398831 8.11074 0.398831C5.78634 0.398831 3.2493 0.181771 1.82093 0.0178983C1.25046 -0.0475071 0.761386 0.415362 0.815647 0.97598C1.01656 3.06752 1.5533 5.69236 6.11191 8.67729C6.80923 9.13441 7.23598 9.9279 7.23084 10.7509C7.22864 11.1354 6.96174 11.4646 6.58265 11.5645C5.83547 11.7614 4.6982 12.1675 4.6872 12.818C4.68574 13.3081 5.80834 13.799 8.11148 13.799C10.4146 13.799 11.535 13.3081 11.5343 12.818C11.5233 12.1675 10.386 11.7614 9.63883 11.5645C9.25974 11.4646 8.99284 11.1102 8.99064 10.7257C8.98551 9.90274 9.41226 9.13441 10.1096 8.67729V8.67729ZM11.6226 5.41198C11.9694 4.03775 12.0699 2.75551 12.1 1.96418C12.1139 1.60121 12.3955 1.3015 12.7621 1.25119L13.8378 1.10456C14.0519 1.0751 14.2528 1.23897 14.2418 1.451C14.1618 3.00779 13.3025 4.67239 12.207 5.74979C11.9555 5.99703 11.5375 5.7505 11.6226 5.41198V5.41198ZM4.02761 5.74979C2.93213 4.67239 2.07277 3.00779 1.99284 1.451C1.98184 1.23897 2.18275 1.0751 2.39686 1.10456L3.47254 1.25119C3.83916 1.3015 4.12073 1.60121 4.13466 1.96418C4.16473 2.75551 4.26518 4.03775 4.61128 5.41198C4.69707 5.7505 4.27911 5.99703 4.02761 5.74979V5.74979Z" fill="url(#paint0_linear_446_28087)"/>
<defs>
<linearGradient id="paint0_linear_446_28087" x1="2.02805" y1="13.799" x2="15.4099" y2="13.799" gradientUnits="userSpaceOnUse">
<stop stop-color="#FFFE00"/>
<stop offset="0.333333" stop-color="#CAC900"/>
<stop offset="0.484848" stop-color="#FFFE07"/>
<stop offset="1" stop-color="#FFFE0B"/>
</linearGradient>
</defs>
</svg>
