<svg width="16" height="16" viewBox="0 0 16 16" fill="none" xmlns="http://www.w3.org/2000/svg">
<path opacity="0.8" d="M13.3129 14.3234C13.3626 14.2736 13.4098 14.2216 13.4543 14.1673C13.5086 14.1228 13.5607 14.0756 13.6104 14.0259C13.6614 13.9748 13.7098 13.9213 13.7554 13.8654C13.8113 13.8198 13.8649 13.7714 13.9159 13.7203C13.9841 13.6521 14.0475 13.5795 14.1059 13.5029C14.1826 13.4445 14.2552 13.3811 14.3234 13.3129C14.8101 12.8262 15.0532 12.1141 14.9603 11.3054L14.2101 4.77529C14.0261 3.17444 12.5907 1.73899 10.9898 1.55506L4.45971 0.804794C3.53602 0.698668 2.73995 1.03162 2.26251 1.65895C2.12844 1.76094 2.00697 1.87823 1.9 2.00938C1.78978 2.09926 1.68876 2.19992 1.59808 2.31048C1.44053 2.43968 1.30188 2.59097 1.1855 2.76179C0.872263 3.22158 0.730111 3.80969 0.804794 4.45971L1.55506 10.9898C1.73899 12.5907 3.17444 14.0261 4.77529 14.2101L11.3054 14.9603C12.1141 15.0532 12.8262 14.8101 13.3129 14.3234Z" fill="url(#paint0_linear_874_39306)" stroke="black" stroke-width="0.429501"/>
<path d="M2.15557 3.34894C1.96393 1.87474 3.00364 0.835021 4.47784 1.02667L10.8885 1.86006C12.3627 2.0517 13.7132 3.40214 13.9048 4.87634L14.7382 11.287C14.9299 12.7612 13.8902 13.801 12.416 13.6093L6.00525 12.7759C4.53105 12.5843 3.18061 11.2338 2.98896 9.75964L2.15557 3.34894Z" fill="url(#paint1_linear_874_39306)"/>
<path d="M8.9169 10.636L8.08166 9.75616C6.64004 8.16246 5.05854 7.21102 5.17392 6.04827C5.26793 5.10085 6.0862 4.43031 7.03362 4.52432C7.56885 4.57743 8.05783 4.87756 8.35405 5.30457C8.72841 4.9441 9.26683 4.74592 9.80206 4.79903C10.7495 4.89304 11.42 5.71131 11.326 6.65873C11.2106 7.82147 10.9519 8.60098 9.40291 10.2773L8.9169 10.636Z" fill="url(#paint2_linear_874_39306)"/>
<defs>
<linearGradient id="paint0_linear_874_39306" x1="12.7757" y1="13.888" x2="2.72666" y2="1.7535" gradientUnits="userSpaceOnUse">
<stop offset="0.0674964" stop-color="#A3A3A3"/>
<stop offset="0.272986" stop-color="#B3B3B3"/>
<stop offset="0.453039" stop-color="#F7F7F7"/>
<stop offset="1" stop-color="#BBBBBB"/>
</linearGradient>
<linearGradient id="paint1_linear_874_39306" x1="12.8777" y1="2.88725" x2="4.01616" y2="11.7488" gradientUnits="userSpaceOnUse">
<stop stop-color="white"/>
<stop offset="1" stop-color="white"/>
</linearGradient>
<linearGradient id="paint2_linear_874_39306" x1="10.1765" y1="9.92778" x2="7.5901" y2="4.61938" gradientUnits="userSpaceOnUse">
<stop stop-color="#FF2D55"/>
<stop offset="1" stop-color="#FF00FF"/>
</linearGradient>
</defs>
</svg>
